REM DIRINDEX 1\2,1\3\5,1\3\6,1\4\7,1\4\8
REM DIRNAME folder01,folder02,folder03,folder04,folder05,folder06,folder07,folder08
TITLE ""
FILE "JE_09.mp3" MP3
  TRACK 01 AUDIO
    TITLE "0:"
    INDEX 01 00:00:00
  TRACK 02 AUDIO
    TITLE "7:cjc139_3148"
    INDEX 01 00:00:17
  TRACK 03 AUDIO
    TITLE "0:"
    INDEX 01 00:02:49
  TRACK 04 AUDIO
    TITLE "8:cjc139_3149"
    INDEX 01 00:05:34
  TRACK 05 AUDIO
    TITLE "0:"
    INDEX 01 00:08:21
  TRACK 06 AUDIO
    TITLE "7:cjc139_3150"
    INDEX 01 00:11:07
  TRACK 07 AUDIO
    TITLE "0:"
    INDEX 01 00:14:49
  TRACK 08 AUDIO
    TITLE "8:cjc139_3151"
    INDEX 01 00:17:35
  TRACK 09 AUDIO
    TITLE "0:"
    INDEX 01 00:20:65
  TRACK 10 AUDIO
    TITLE "7:cjc139_3152"
    INDEX 01 00:23:51
  TRACK 11 AUDIO
    TITLE "0:"
    INDEX 01 00:25:72
  TRACK 12 AUDIO
    TITLE "8:cjc139_3153"
    INDEX 01 00:28:57
  TRACK 13 AUDIO
    TITLE "0:"
    INDEX 01 00:31:12
  TRACK 14 AUDIO
    TITLE "7:cjc139_3154"
    INDEX 01 00:33:73
  TRACK 15 AUDIO
    TITLE "0:"
    INDEX 01 00:37:38
  TRACK 16 AUDIO
    TITLE "8:cjc139_3155"
    INDEX 01 00:40:23
  TRACK 17 AUDIO
    TITLE "0:"
    INDEX 01 00:43:19
  TRACK 18 AUDIO
    TITLE "7:cjc139_3156"
    INDEX 01 00:46:04
  TRACK 19 AUDIO
    TITLE "0:"
    INDEX 01 00:48:04
  TRACK 20 AUDIO
    TITLE "8:cjc139_3157"
    INDEX 01 00:50:64
  TRACK 21 AUDIO
    TITLE "0:"
    INDEX 01 00:52:51
  TRACK 22 AUDIO
    TITLE "7:cjc139_3158"
    INDEX 01 00:55:36
  TRACK 23 AUDIO
    TITLE "0:"
    INDEX 01 00:58:32
  TRACK 24 AUDIO
    TITLE "8:cjc139_3159"
    INDEX 01 01:01:17
  TRACK 25 AUDIO
    TITLE "0:"
    INDEX 01 01:03:65
  TRACK 26 AUDIO
    TITLE "7:cjc139_3160"
    INDEX 01 01:06:49
  TRACK 27 AUDIO
    TITLE "0:"
    INDEX 01 01:09:26
  TRACK 28 AUDIO
    TITLE "8:cjc139_3161"
    INDEX 01 01:12:11
  TRACK 29 AUDIO
    TITLE "0:"
    INDEX 01 01:14:19
  TRACK 30 AUDIO
    TITLE "7:cjc139_3162"
    INDEX 01 01:17:06
  TRACK 31 AUDIO
    TITLE "0:"
    INDEX 01 01:18:62
  TRACK 32 AUDIO
    TITLE "8:cjc139_3163"
    INDEX 01 01:21:47
  TRACK 33 AUDIO
    TITLE "0:"
    INDEX 01 01:23:46
  TRACK 34 AUDIO
    TITLE "7:cjc139_3164"
    INDEX 01 01:26:34
  TRACK 35 AUDIO
    TITLE "0:"
    INDEX 01 01:29:03
  TRACK 36 AUDIO
    TITLE "8:cjc139_3165"
    INDEX 01 01:31:65
  TRACK 37 AUDIO
    TITLE "0:"
    INDEX 01 01:34:10
  TRACK 38 AUDIO
    TITLE "7:cjc139_3166"
    INDEX 01 01:36:74
  TRACK 39 AUDIO
    TITLE "0:"
    INDEX 01 01:40:05
  TRACK 40 AUDIO
    TITLE "8:cjc139_3167"
    INDEX 01 01:42:65
  TRACK 41 AUDIO
    TITLE "0:"
    INDEX 01 01:45:59
  TRACK 42 AUDIO
    TITLE "7:cjc139_3168"
    INDEX 01 01:48:46
  TRACK 43 AUDIO
    TITLE "0:"
    INDEX 01 01:51:01
  TRACK 44 AUDIO
    TITLE "8:cjc139_3169"
    INDEX 01 01:53:61
  TRACK 45 AUDIO
    TITLE "0:"
    INDEX 01 01:56:10
  TRACK 46 AUDIO
    TITLE "7:cjc139_3170"
    INDEX 01 01:58:70
  TRACK 47 AUDIO
    TITLE "0:"
    INDEX 01 02:01:62
  TRACK 48 AUDIO
    TITLE "8:cjc139_3171"
    INDEX 01 02:04:45
  TRACK 49 AUDIO
    TITLE "0:"
    INDEX 01 02:06:63
  TRACK 50 AUDIO
    TITLE "7:cjc139_3172"
    INDEX 01 02:09:50
  TRACK 51 AUDIO
    TITLE "0:"
    INDEX 01 02:11:74
  TRACK 52 AUDIO
    TITLE "8:cjc139_3173"
    INDEX 01 02:14:57
  TRACK 53 AUDIO
    TITLE "0:"
    INDEX 01 02:17:14
  TRACK 54 AUDIO
    TITLE "7:cjc139_3174"
    INDEX 01 02:20:03
  TRACK 55 AUDIO
    TITLE "0:"
    INDEX 01 02:21:67
  TRACK 56 AUDIO
    TITLE "8:cjc139_3175"
    INDEX 01 02:24:49
  TRACK 57 AUDIO
    TITLE "0:"
    INDEX 01 02:26:37
  TRACK 58 AUDIO
    TITLE "7:cjc139_3176"
    INDEX 01 02:29:21
  TRACK 59 AUDIO
    TITLE "0:"
    INDEX 01 02:32:25
  TRACK 60 AUDIO
    TITLE "8:cjc139_3177"
    INDEX 01 02:35:08
  TRACK 61 AUDIO
    TITLE "0:"
    INDEX 01 02:38:10
  TRACK 62 AUDIO
    TITLE "7:cjc139_3178"
    INDEX 01 02:40:72
  TRACK 63 AUDIO
    TITLE "0:"
    INDEX 01 02:43:33
  TRACK 64 AUDIO
    TITLE "8:cjc139_3179"
    INDEX 01 02:46:18
  TRACK 65 AUDIO
    TITLE "0:"
    INDEX 01 02:48:73
  TRACK 66 AUDIO
    TITLE "7:cjc139_3180"
    INDEX 01 02:51:58
  TRACK 67 AUDIO
    TITLE "0:"
    INDEX 01 02:54:27
  TRACK 68 AUDIO
    TITLE "8:cjc139_3181"
    INDEX 01 02:57:12
  TRACK 69 AUDIO
    TITLE "0:"
    INDEX 01 02:59:54
  TRACK 70 AUDIO
    TITLE "7:cjc139_3182"
    INDEX 01 03:02:40
  TRACK 71 AUDIO
    TITLE "0:"
    INDEX 01 03:05:09
  TRACK 72 AUDIO
    TITLE "8:cjc139_3183"
    INDEX 01 03:07:67
  TRACK 73 AUDIO
    TITLE "0:"
    INDEX 01 03:10:12
  TRACK 74 AUDIO
    TITLE "7:cjc139_3184"
    INDEX 01 03:12:72
  TRACK 75 AUDIO
    TITLE "0:"
    INDEX 01 03:16:19
  TRACK 76 AUDIO
    TITLE "8:cjc139_3185"
    INDEX 01 03:19:05
  TRACK 77 AUDIO
    TITLE "0:"
    INDEX 01 03:21:65
  TRACK 78 AUDIO
    TITLE "7:cjc139_3186"
    INDEX 01 03:24:50
  TRACK 79 AUDIO
    TITLE "0:"
    INDEX 01 03:27:56
  TRACK 80 AUDIO
    TITLE "8:cjc139_3187"
    INDEX 01 03:30:41
  TRACK 81 AUDIO
    TITLE "0:"
    INDEX 01 03:33:53
  TRACK 82 AUDIO
    TITLE "7:cjc139_3188"
    INDEX 01 03:36:37
  TRACK 83 AUDIO
    TITLE "0:"
    INDEX 01 03:39:41
  TRACK 84 AUDIO
    TITLE "8:cjc139_3189"
    INDEX 01 03:42:24
  TRACK 85 AUDIO
    TITLE "0:"
    INDEX 01 03:45:30
  TRACK 86 AUDIO
    TITLE "7:cjc139_3190"
    INDEX 01 03:48:15
  TRACK 87 AUDIO
    TITLE "0:"
    INDEX 01 03:51:47
  TRACK 88 AUDIO
    TITLE "8:cjc139_3191"
    INDEX 01 03:54:31
  TRACK 89 AUDIO
    TITLE "0:"
    INDEX 01 03:57:69
  TRACK 90 AUDIO
    TITLE "7:cjc139_3192"
    INDEX 01 04:00:55
  TRACK 91 AUDIO
    TITLE "0:"
    INDEX 01 04:04:32
  TRACK 92 AUDIO
    TITLE "8:cjc139_3193"
    INDEX 01 04:07:14
  TRACK 93 AUDIO
    TITLE "0:"
    INDEX 01 04:10:42
  TRACK 94 AUDIO
    TITLE "7:cjc139_3194"
    INDEX 01 04:13:29
  TRACK 95 AUDIO
    TITLE "0:"
    INDEX 01 04:16:47
  TRACK 96 AUDIO
    TITLE "8:cjc139_3195"
    INDEX 01 04:19:33
  TRACK 97 AUDIO
    TITLE "0:"
    INDEX 01 04:22:67
  TRACK 98 AUDIO
    TITLE "7:cjc139_3196"
    INDEX 01 04:25:53
  TRACK 99 AUDIO
    TITLE "0:"
    INDEX 01 04:29:14
  TRACK 100 AUDIO
    TITLE "8:cjc139_3197"
    INDEX 01 04:32:02
  TRACK 101 AUDIO
    TITLE "0:"
    INDEX 01 04:35:73
  TRACK 102 AUDIO
    TITLE "7:cjc139_3198"
    INDEX 01 04:38:60
  TRACK 103 AUDIO
    TITLE "0:"
    INDEX 01 04:41:56
  TRACK 104 AUDIO
    TITLE "8:cjc139_3199"
    INDEX 01 04:44:43
  TRACK 105 AUDIO
    TITLE "0:"
    INDEX 01 04:47:27
  TRACK 106 AUDIO
    TITLE "7:cjc139_3200"
    INDEX 01 04:50:10
  TRACK 107 AUDIO
    TITLE "0:"
    INDEX 01 04:54:31
  TRACK 108 AUDIO
    TITLE "8:cjc139_3201"
    INDEX 01 04:57:14
  TRACK 109 AUDIO
    TITLE "0:"
    INDEX 01 05:01:02
  TRACK 110 AUDIO
    TITLE "7:cjc139_3202"
    INDEX 01 05:03:58
  TRACK 111 AUDIO
    TITLE "0:"
    INDEX 01 05:07:28
  TRACK 112 AUDIO
    TITLE "8:cjc139_3203"
    INDEX 01 05:10:15
  TRACK 113 AUDIO
    TITLE "0:"
    INDEX 01 05:13:41
  TRACK 114 AUDIO
    TITLE "7:cjc139_3204"
    INDEX 01 05:16:25
  TRACK 115 AUDIO
    TITLE "0:"
    INDEX 01 05:19:31
  TRACK 116 AUDIO
    TITLE "8:cjc139_3205"
    INDEX 01 05:22:18
  TRACK 117 AUDIO
    TITLE "0:"
    INDEX 01 05:25:26
  TRACK 118 AUDIO
    TITLE "7:cjc139_3206"
    INDEX 01 05:28:15
  TRACK 119 AUDIO
    TITLE "0:"
    INDEX 01 05:31:11
  TRACK 120 AUDIO
    TITLE "8:cjc139_3207"
    INDEX 01 05:33:71
  TRACK 121 AUDIO
    TITLE "0:"
    INDEX 01 05:37:02
  TRACK 122 AUDIO
    TITLE "7:cjc139_3208"
    INDEX 01 05:39:62
  TRACK 123 AUDIO
    TITLE "0:"
    INDEX 01 05:42:72
  TRACK 124 AUDIO
    TITLE "8:cjc139_3209"
    INDEX 01 05:45:58
  TRACK 125 AUDIO
    TITLE "0:"
    INDEX 01 05:48:74
  TRACK 126 AUDIO
    TITLE "7:cjc139_3210"
    INDEX 01 05:51:59
  TRACK 127 AUDIO
    TITLE "0:"
    INDEX 01 05:55:02
  TRACK 128 AUDIO
    TITLE "8:cjc139_3211"
    INDEX 01 05:57:61
  TRACK 129 AUDIO
    TITLE "0:"
    INDEX 01 06:00:42
  TRACK 130 AUDIO
    TITLE "7:cjc139_3212"
    INDEX 01 06:03:29
  TRACK 131 AUDIO
    TITLE "0:"
    INDEX 01 06:06:33
  TRACK 132 AUDIO
    TITLE "8:cjc139_3213"
    INDEX 01 06:09:18
  TRACK 133 AUDIO
    TITLE "0:"
    INDEX 01 06:12:04
  TRACK 134 AUDIO
    TITLE "7:cjc139_3214"
    INDEX 01 06:14:66
  TRACK 135 AUDIO
    TITLE "0:"
    INDEX 01 06:15:69
  TRACK 136 AUDIO
    TITLE "8:cjc139_3215"
    INDEX 01 06:18:56
  TRACK 137 AUDIO
    TITLE "0:"
    INDEX 01 06:20:17
  TRACK 138 AUDIO
    TITLE "7:cjc139_3216"
    INDEX 01 06:23:00
  TRACK 139 AUDIO
    TITLE "0:"
    INDEX 01 06:25:22
  TRACK 140 AUDIO
    TITLE "8:cjc139_3217"
    INDEX 01 06:28:07
  TRACK 141 AUDIO
    TITLE "0:"
    INDEX 01 06:30:04
  TRACK 142 AUDIO
    TITLE "7:cjc139_3218"
    INDEX 01 06:32:66
  TRACK 143 AUDIO
    TITLE "0:"
    INDEX 01 06:35:54
  TRACK 144 AUDIO
    TITLE "8:cjc139_3219"
    INDEX 01 06:38:39
  TRACK 145 AUDIO
    TITLE "0:"
    INDEX 01 06:41:16
